<svg id="Layer_1" data-name="Layer 1" xmlns="http://www.w3.org/2000/svg" width="116px" height="95px" viewBox="0 0 432 432">
  <title>Artboard 1</title>
  <g>
    <polygon points="245.99 359.75 258.47 359.75 258.47 361.6 256.62 361.6 256.62 361.57 247.84 361.57 247.84 361.6 245.99 361.6 245.99 359.75" style="fill: #231f20"/>
    <polygon points="72.32 217.16 72.32 328.59 72.19 328.59 72.19 318.84 70.47 318.84 70.47 229.64 72.19 229.64 72.19 217.16 72.32 217.16" style="fill: #231f20"/>
    <path d="M161.72,30.25a7.23,7.23,0,1,0-11.94,5.46l.33.28V57.26h21.72V70.43H170V59.11H148.26V36.82a9,9,0,0,1-2.84-6.57,9.08,9.08,0,1,1,15.32,6.57v9.81h21.73v23.8h-1.85v-22H158.89V36l.31-.28A7.2,7.2,0,0,0,161.72,30.25Z" style="fill: #231f20"/>
    <rect x="314.07" y="359.72" width="12.48" height="0.04" style="fill: #231f20"/>
    <path d="M153.36,409a7.23,7.23,0,0,0,4.71-12.7l-.32-.27V383.52h21.73V361.6h1.85v23.77H159.6v9.81a9.08,9.08,0,1,1-12.48,0V372.89h21.73V361.6h1.85v13.14H149V396l-.33.27a7.23,7.23,0,0,0,4.72,12.7Z" style="fill: #231f20"/>
    <rect x="209.59" y="361.57" width="8.78" height="0.04" style="fill: #231f20"/>
    <path d="M70.47,103.45a33,33,0,0,1,31.44-33v1.8h1.59a31.21,31.21,0,0,0-31.18,31.17v2.79H70.47Z" style="fill: #231f20"/>
    <rect x="361.67" y="108.75" width="0.06" height="8.78" style="fill: #231f20"/>
    <path d="M141.18,207.49l-2.73.41-.38-.79c.78-.38,1.54-.79,2.27-1.22,12.21-7.3,14.17-11.89,14.44-13.53l2.74.47c-.52,3.06-3.67,8.21-15.76,15.44a4.23,4.23,0,0,1-.41.23C141.25,207.87,141.19,207.52,141.18,207.49Z" style="fill: #231f20"/>
    <polygon points="72.32 106.24 72.32 217.16 72.19 217.16 70.47 217.16 70.47 118.72 72.19 118.72 72.19 106.24 72.32 106.24" style="fill: #231f20"/>
    <path d="M243.76,250.13a31.88,31.88,0,1,0-31.89-31.88A31.92,31.92,0,0,0,243.76,250.13Zm0,2.77a34.66,34.66,0,1,1,34.66-34.65A34.69,34.69,0,0,1,243.76,252.9Z" style="fill: #ed1c24"/>
    <polygon points="218.87 70.43 220.72 70.43 220.72 72.28 208.24 72.28 208.24 70.43 210.09 70.43 218.87 70.43" style="fill: #231f20"/>
    <path d="M270.7,48.48V36l-.31-.28a7.23,7.23,0,1,1,9.42,0l-.32.28V57.26H257.76V70.43H249v-22Z" style="fill: #939598"/>
    <rect x="182.47" y="70.43" width="25.77" height="1.85" style="fill: #231f20"/>
    <polygon points="182.47 72.28 169.99 72.28 169.99 70.43 171.83 70.43 180.62 70.43 182.47 70.43 182.47 72.28" style="fill: #231f20"/>
    <rect x="359.82" y="217.52" width="0.06" height="12.48" style="fill: #231f20"/>
    <circle cx="243.37" cy="217.86" r="6.7" style="fill: #231f20"/>
    <path d="M214.94,141.38l.52,0-.52,0Z" style="fill: #231f20"/>
    <path d="M359.82,330.45V319.5h.05v9.09C359.87,329.21,359.85,329.83,359.82,330.45Z" style="fill: #231f20"/>
    <path d="M278.35,396l.32.27a7.22,7.22,0,1,1-9.42,0l.32-.27V383.52H247.84V361.6h8.78v13.14h21.73Z" style="fill: #939598"/>
    <path d="M224.43,218.62a18.92,18.92,0,1,1,18.91,18.92A18.93,18.93,0,0,1,224.43,218.62Zm9.46-.52a9.48,9.48,0,1,0,9.48-9.48A9.49,9.49,0,0,0,233.89,218.1Z" style="fill: #f1f2f2"/>
    <polygon points="361.67 228.15 361.72 228.15 361.72 229.99 359.87 229.99 359.87 217.52 361.72 217.52 361.72 219.36 361.67 219.36 361.67 228.15" style="fill: #231f20"/>
    <path d="M217.19,285.92c0,.31-.07.68-.09,1.09a.45.45,0,0,1-.16,0v-1.15Z" style="fill: #231f20"/>
    <path d="M209.59,361.6v34.53l-.31.27a7.22,7.22,0,1,0,9.43-.27l-.34-.28V361.6h1.85V395a9.09,9.09,0,1,1-12.48.34V361.6Z" style="fill: #231f20"/>
    <path d="M209.74,35.87a7.23,7.23,0,1,1,9.43-.27l-.3.27V70.43h-8.78V36.15Z" style="fill: #939598"/>
    <path d="M113,359.75H103.5c-.54,0-1.08,0-1.6,0H113Z" style="fill: #231f20"/>
    <circle cx="180.73" cy="217.87" r="6.7" style="fill: #231f20"/>
    <path d="M262.26,218.62a18.92,18.92,0,1,0-18.92,18.92A18.94,18.94,0,0,0,262.26,218.62Zm-40.61,0a21.69,21.69,0,1,1,21.69,21.69A21.71,21.71,0,0,1,221.65,218.62Z" style="fill: #ed1c24"/>
    <path d="M100.48,395.32V361.46c.61.06,1.23.1,1.85.12v34.55l-.3.27a7.22,7.22,0,1,0,9.43-.27l-.35-.28V361.6H113V395a9.08,9.08,0,1,1-12.48.34Z" style="fill: #231f20"/>
    <path d="M328,70.43h.72a33.06,33.06,0,0,1,33,33v3.45h-1.85v-3.45a31.21,31.21,0,0,0-31.18-31.17H328Z" style="fill: #231f20"/>
    <path d="M93.43,340.49V96.16H337.84V340.49Zm17.83-174c-8.53,19.83-12,32.84-4.66,40.64,3.6,3.81,9.94,6.23,17.19,6.23a34.78,34.78,0,0,0,15-3.47c.69,4,2.48,13.69,5.37,24.7,5.11,19.42,11.07,33.54,17.7,41.93,14.33,18.11,23.59,23.46,32.54,28.63l3,1.74a17.91,17.91,0,0,0,9.18,2.75,14.2,14.2,0,0,0,9-3.14l.08.07a15.08,15.08,0,0,0,9.49,3.41,17.29,17.29,0,0,0,8.91-2.63l3-1.73c8.95-5.18,18.21-10.53,32.53-28.64s21.86-58.41,23.36-67.13a34.8,34.8,0,0,0,15.08,3.51c7.25,0,13.6-2.42,17.2-6.23,7.37-7.8,3.87-20.81-4.67-40.64-3.26-7.56-10.91-20.71-17-24.93-1.22-.85-4.95-3.44-9.35-2.69-3.09.53-7.76,3.51-8.36,3.94l-1.38,1c-4.53,3.23-12.15,8.66-18,15.33-6.71-5.55-14.36-10.18-18.66-12a74.61,74.61,0,0,0-14.3-4.13,81.92,81.92,0,0,0-14.3-1.45c-1.07,0-2.13-.08-3.15-.14v-.05l-.52,0-.52,0v.05l-2.6.1A76.18,76.18,0,0,0,197.78,143a72.59,72.59,0,0,0-14.07,4.13A84.61,84.61,0,0,0,165.23,159c-5.84-6.61-13.4-12-17.9-15.21l-1.39-1c-.6-.43-5.27-3.42-8.35-3.94-4.4-.75-8.13,1.84-9.35,2.69C122.17,145.76,114.53,158.91,111.26,166.47Z" style="fill: #00a79d"/>
    <path d="M243.76,186.37a31.88,31.88,0,1,1-31.89,31.88A31.91,31.91,0,0,1,243.76,186.37Zm-22.11,32.25a21.69,21.69,0,1,0,21.69-21.68A21.72,21.72,0,0,0,221.65,218.62Z" style="fill: #ed1c24"/>
    <rect x="112.96" y="359.75" width="55.88" height="1.85" style="fill: #231f20"/>
    <rect x="361.67" y="219.36" width="0.06" height="8.78" style="fill: #231f20"/>
    <path d="M18.42,331.32a9.08,9.08,0,1,1-.34-12.48H70.47v9.75c0,.92,0,1.83.11,2.73Zm-14-6.07a7.22,7.22,0,0,0,12.83,4.56l.27-.34H70.34v-8.78H17.28l-.27-.3a7.22,7.22,0,0,0-12.56,4.86Z" style="fill: #231f20"/>
    <path d="M359.82,330.45c0-.62.05-1.24.05-1.86V319.5h1.85v1.85h-.05v8.78h0c0,.63-.07,1.24-.12,1.85h-1.74Z" style="fill: #231f20"/>
    <path d="M226.51,276.93c-3,3.38-8,8.05-10.74,7.31-3.14-.86-7.86-4.76-10.65-7.32,2.75-.14,10.19-.47,10.85-.48l4.3.21C223.2,276.79,225.42,276.9,226.51,276.93Z" style="fill: #231f20"/>
    <path d="M208.24,37a9.08,9.08,0,1,1,12.48-.34V70.43h-1.85V35.87l.3-.27a7.22,7.22,0,1,0-9.43.27l.35.28V70.43h-1.85Z" style="fill: #231f20"/>
    <rect x="359.87" y="229.99" width="1.85" height="89.5" style="fill: #231f20"/>
    <rect x="315.92" y="361.57" width="8.78" height="0.04" style="fill: #231f20"/>
    <path d="M315.49,37A9.09,9.09,0,1,1,328,36.68V70.43h-1.85V35.87l.31-.27a7.22,7.22,0,1,0-9.43.27l.34.28V70.43h-1.85Z" style="fill: #231f20"/>
    <rect x="258.47" y="359.75" width="55.6" height="1.85" style="fill: #231f20"/>
    <path d="M115.2,30.28a7.21,7.21,0,0,1-2.36,5.32l-.3.27V70.43h-8.79V36.15l-.34-.28a7.22,7.22,0,1,1,11.79-5.59Z" style="fill: #939598"/>
    <polygon points="248.97 70.43 257.76 70.43 259.61 70.43 259.61 72.28 247.13 72.28 247.13 70.43 248.97 70.43" style="fill: #231f20"/>
    <path d="M361.72,228.15v-8.79h52.72l.28-.34a7.24,7.24,0,1,1,.28,9.43l-.28-.3Z" style="fill: #939598"/>
    <path d="M233.89,218.1a9.48,9.48,0,1,1,9.48,9.47A9.49,9.49,0,0,1,233.89,218.1Zm2.78-.24a6.7,6.7,0,1,0,6.7-6.7A6.7,6.7,0,0,0,236.67,217.86Z" style="fill: #231f20"/>
    <rect x="114.39" y="70.43" width="55.6" height="1.85" style="fill: #231f20"/>
    <path d="M141.18,207.49s.07.38.17,1c-.85.5-1.71,1-2.58,1.37-.21-1.24-.32-1.94-.32-2Z" style="fill: #231f20"/>
    <path d="M317,35.87a7.23,7.23,0,1,1,9.43-.27l-.31.27V70.43h-8.78V36.15Z" style="fill: #939598"/>
    <path d="M320.48,409a7.21,7.21,0,0,1-4.87-12.55l.31-.27V361.6h8.78v34.25l.34.28A7.22,7.22,0,0,1,320.48,409Z" style="fill: #939598"/>
    <path d="M361.68,330.13c0-.51,0-1,0-1.54v-7.24h52.72l.28-.34a7.23,7.23,0,1,1,.28,9.41l-.28-.29Z" style="fill: #939598"/>
    <rect x="259.61" y="70.43" width="55.88" height="1.85" style="fill: #231f20"/>
    <path d="M92.5,341.42H338.76V95.23H92.5ZM72.32,217.16V103.45A31.21,31.21,0,0,1,103.5,72.28H328.69a31.21,31.21,0,0,1,31.18,31.17v3.45h-.05v12.48h.05v98.14h-.05V230h.05V319.5h-.05v10.95a31.22,31.22,0,0,1-31.13,29.3h-2.14v0H314.07v0h-55.6v0H246v0H220.22v0H207.74v0H181.33v0H168.85v0H113v0H101.9a31.23,31.23,0,0,1-29.58-31.13Z" style="fill: #6d6e71"/>
    <path d="M102.33,396.13V361.58l1.17,0h7.61v34.25l.35.28a7.23,7.23,0,1,1-9.43.27Z" style="fill: #939598"/>
    <rect x="181.33" y="359.75" width="26.41" height="1.85" style="fill: #231f20"/>
    <path d="M165.23,159a84.61,84.61,0,0,1,18.48-11.84A72.59,72.59,0,0,1,197.78,143a76.18,76.18,0,0,1,14.56-1.49l2.6-.1-.18,2.71.64,0c-.93,0-1.93.08-3,.12a74.62,74.62,0,0,0-14,1.43,69.08,69.08,0,0,0-13.58,4c-4.15,1.75-11.64,6.29-17.78,11.41C166.44,160.39,165.84,159.68,165.23,159Z" style="fill: #231f20"/>
    <path d="M214.75,305c-.22-2.3-.7-13.29-.4-18.27.23.09.46.16.69.23a4.61,4.61,0,0,0,1.29.16l.61,0c0,4.36-.14,15.15-.35,17.45a3.6,3.6,0,0,1-1,2s0,0-.05,0A2.34,2.34,0,0,1,214.75,305Z" style="fill: #231f20"/>
    <path d="M287.4,145,286,146c-5.56,4-15.92,11.34-21.44,20l-2.34-1.49c.72-1.14,1.53-2.26,2.38-3.35.3.23.57.47.86.71l1.8-2.1c-.28-.25-.58-.49-.88-.74,5.86-6.67,13.48-12.1,18-15.33l1.38-1c.6-.43,5.27-3.41,8.36-3.94,4.4-.75,8.13,1.84,9.35,2.69,6.06,4.22,13.71,17.37,17,24.93,8.54,19.83,12,32.84,4.67,40.64-3.6,3.81-9.95,6.23-17.2,6.23a34.8,34.8,0,0,1-15.08-3.51c.15-.89.24-1.45.27-1.63l.15-1.28c9.58,4.8,23.19,5.31,29.84-1.72,5.52-5.83,4.11-16-5.2-37.63-3.25-7.55-10.63-20-16-23.75-1-.69-4-2.79-7.31-2.24C292.27,142,288.12,144.52,287.4,145Z" style="fill: #231f20"/>
    <rect x="220.22" y="359.75" width="25.77" height="1.85" style="fill: #231f20"/>
    <rect x="247.84" y="361.57" width="8.78" height="0.04" style="fill: #231f20"/>
    <path d="M180.62,48.48v22h-8.79V57.26H150.11V36l-.33-.28a7.23,7.23,0,1,1,9.42,0l-.31.28V48.48Z" style="fill: #939598"/>
    <polygon points="168.85 359.75 181.33 359.75 181.33 361.6 179.48 361.6 179.48 361.57 170.7 361.57 170.7 361.6 168.85 361.6 168.85 359.75" style="fill: #231f20"/>
    <path d="M215,286.91c-.23-.07-.46-.14-.69-.23,0-.31,0-.61.06-.86l1.62,0,.91.09V287l-.61,0A4.61,4.61,0,0,1,215,286.91Z" style="fill: #231f20"/>
    <path d="M11.68,230.8A7.23,7.23,0,1,1,17,218.71l.27.3H70.34v8.78H17.55l-.27.35A7.2,7.2,0,0,1,11.68,230.8Z" style="fill: #939598"/>
    <polygon points="361.67 117.53 361.72 117.53 361.72 119.38 359.87 119.38 359.87 106.9 361.72 106.9 361.72 108.75 361.67 108.75 361.67 117.53" style="fill: #231f20"/>
    <rect x="245.99" y="359.72" width="12.48" height="0.04" style="fill: #231f20"/>
    <path d="M213.84,304.13c.18-2.4.33-13.38.32-17.51a.7.7,0,0,0,.19.06c-.3,5,.18,16,.4,18.27a2.34,2.34,0,0,0,.75,1.53,14.2,14.2,0,0,1-9,3.14,17.91,17.91,0,0,1-9.18-2.75l-3-1.74c-8.95-5.17-18.21-10.52-32.54-28.63-6.63-8.39-12.59-22.51-17.7-41.93-2.89-11-4.68-20.69-5.37-24.7.87-.41,1.73-.87,2.58-1.37,1.18,7,8.61,48.49,22.67,66.28s22.62,22.67,31.74,28c1,.57,2,1.16,3,1.75,8.18,4.83,13.76.88,14.93-.1Z" style="fill: #231f20"/>
    <path d="M106.6,207.11c-7.38-7.8-3.87-20.81,4.66-40.64,3.27-7.56,10.91-20.71,17-24.93,1.22-.85,4.95-3.44,9.35-2.69,3.08.52,7.75,3.51,8.35,3.94l1.39,1c4.5,3.21,12.06,8.6,17.9,15.21l-.95.8,1.81,2.1.92-.78a38.8,38.8,0,0,1,2.48,3.48l-2.33,1.49c-5.52-8.7-15.88-16.08-21.44-20l-1.4-1c-.71-.51-4.88-3.06-7.21-3.46-3.28-.55-6.29,1.55-7.29,2.24-5.38,3.74-12.75,16.2-16,23.75-9.3,21.6-10.71,31.8-5.19,37.63,6.55,6.94,19.89,6.54,29.45,1.91l.38.79s.11.73.32,2a34.78,34.78,0,0,1-15,3.47C116.54,213.34,110.2,210.92,106.6,207.11Z" style="fill: #231f20"/>
    <polygon points="207.74 359.75 220.22 359.75 220.22 361.6 218.37 361.6 218.37 361.57 209.59 361.57 209.59 361.6 207.74 361.6 207.74 359.75" style="fill: #231f20"/>
    <path d="M72.19,328.59v2.73H70.58c-.07-.9-.11-1.81-.11-2.73v-9.75h1.72Z" style="fill: #231f20"/>
    <path d="M167,161.11l-.92.78-1.81-2.1.95-.8C165.84,159.68,166.44,160.39,167,161.11Z" style="fill: #231f20"/>
    <path d="M216,141.38v.05l-.52,0Z" style="fill: #231f20"/>
    <path d="M216,285.8h.91v.1Z" style="fill: #231f20"/>
    <path d="M72.19,331.32v-2.73h.13a31.23,31.23,0,0,0,29.58,31.13h-1.42v1.74a33.07,33.07,0,0,1-29.9-30.14Z" style="fill: #231f20"/>
    <path d="M11.68,332.48A7.23,7.23,0,1,1,17,320.39l.27.3H70.34v8.78H17.55l-.27.34A7.18,7.18,0,0,1,11.68,332.48Z" style="fill: #939598"/>
    <path d="M225.07,310a15.08,15.08,0,0,1-9.49-3.41l-.08-.07s0,0,.05,0a3.6,3.6,0,0,0,1-2c.21-2.3.35-13.09.35-17.45a.45.45,0,0,0,.16,0c-.26,4.7.19,15,.39,17.53,1.71,1.4,7.28,5,15.07.4l3-1.75c9.12-5.27,17.74-10.26,31.74-27.95,14.31-18.1,21.94-60.9,22.94-66.8.86.51,1.72,1,2.59,1.39-1.5,8.72-9,49-23.36,67.13S245.91,300.42,237,305.6l-3,1.73A17.29,17.29,0,0,1,225.07,310Z" style="fill: #231f20"/>
    <path d="M11.68,119.88A7.23,7.23,0,1,1,17,107.79l.27.3H70.34v8.78H17.55l-.27.34A7.18,7.18,0,0,1,11.68,119.88Z" style="fill: #939598"/>
    <path d="M216,285.8l-1.62,0c0-.07,0-.13,0-.19Z" style="fill: #231f20"/>
    <path d="M290.37,207.76l2.75.44c0,.18-.12.74-.27,1.63-.87-.42-1.73-.88-2.59-1.39C290.32,208,290.36,207.79,290.37,207.76Z" style="fill: #231f20"/>
    <rect x="207.74" y="359.72" width="12.48" height="0.04" style="fill: #231f20"/>
    <path d="M11.68,121.73a9.08,9.08,0,1,1,6.4-15.49H70.47v12.48h-52A9,9,0,0,1,11.68,121.73Zm0-1.85a7.18,7.18,0,0,0,5.6-2.67l.27-.34H70.34v-8.78H17.28l-.27-.3a7.22,7.22,0,1,0-5.33,12.09Z" style="fill: #231f20"/>
    <rect x="359.87" y="119.38" width="1.85" height="98.14" style="fill: #231f20"/>
    <path d="M414.72,108.41l-.28.34H361.72V106.9h51.86A9.07,9.07,0,1,1,420.32,122a9.1,9.1,0,0,1-6.4-2.65h-52.2v-1.85h53l.28.29a7.21,7.21,0,1,0-.28-9.41Z" style="fill: #231f20"/>
    <path d="M215.77,284.24c2.73.74,7.78-3.93,10.74-7.31-1.09,0-3.31-.14-6.24-.28l-4.3-.21c-.66,0-8.1.34-10.85.48C207.91,279.48,212.63,283.38,215.77,284.24Zm-11.85-10c.82-.07,11.15-.59,12.13-.55l4.34.2c2.77.14,6.56.32,6.92.32a4.23,4.23,0,0,1,2.4,1.09l1,.87-.81,1c-.8,1-7.29,9.11-12.8,9.83,0-.41.05-.78.09-1.09l-.25,0v-.1H216l-1.6-.17c0,.06,0,.12,0,.19h-.25v.8c-5.3-2-12.29-8.95-12.6-9.25l-1.06-1.07,1.15-1A4.86,4.86,0,0,1,203.92,274.22Z" style="fill: #231f20"/>
    <path d="M11.68,232.65a9.08,9.08,0,1,1,6.4-15.49H70.47v12.48h-52A9,9,0,0,1,11.68,232.65Zm0-1.85a7.2,7.2,0,0,0,5.6-2.66l.27-.35H70.34V219H17.28l-.27-.3a7.22,7.22,0,1,0-5.33,12.09Z" style="fill: #231f20"/>
    <path d="M209.59,396.13V361.6h8.78v34.25l.34.28a7.23,7.23,0,1,1-9.43.27Z" style="fill: #939598"/>
    <path d="M361.72,328.59c0,.51,0,1,0,1.54h0v-8.78h.05Z" style="fill: #231f20"/>
    <polygon points="315.49 72.28 315.49 70.43 317.34 70.43 326.12 70.43 327.97 70.43 327.97 72.28 315.49 72.28" style="fill: #231f20"/>
    <path d="M413.92,332H361.56c.05-.61.1-1.22.12-1.85h53l.28.29a7.21,7.21,0,1,0-.28-9.41l-.28.34H361.72V319.5h51.86a9.07,9.07,0,1,1,6.74,15.13A9.1,9.1,0,0,1,413.92,332Z" style="fill: #231f20"/>
    <path d="M98.9,30.28a9.08,9.08,0,1,1,15.49,6.4V70.43h-1.85V35.87l.3-.27a7.22,7.22,0,1,0-9.43.27l.34.28V70.43h-.25c-.54,0-1.07,0-1.59,0V37A9,9,0,0,1,98.9,30.28Z" style="fill: #231f20"/>
    <path d="M414.72,219l-.28.34H361.72v-1.84h51.86a9.09,9.09,0,1,1,.34,12.47h-52.2v-1.84h53l.28.3a7.21,7.21,0,1,0-.28-9.43Z" style="fill: #231f20"/>
    <path d="M232.86,145.73A80.56,80.56,0,0,0,219,144.34c-1.25,0-2.45-.09-3.63-.16l.76,0-.18-2.71c1,.06,2.08.1,3.15.14a81.92,81.92,0,0,1,14.3,1.45,74.61,74.61,0,0,1,14.3,4.13c4.3,1.78,12,6.41,18.66,12-.62.69-1.21,1.41-1.78,2.13-6.43-5.32-13.94-9.87-18-11.53A71.32,71.32,0,0,0,232.86,145.73Z" style="fill: #231f20"/>
    <rect x="70.47" y="217.16" width="1.72" height="12.48" style="fill: #231f20"/>
    <path d="M114.39,72.28H101.91v-1.8c.52,0,1,0,1.59,0h10.89Z" style="fill: #231f20"/>
    <path d="M111.11,361.57h-8.78c-.62,0-1.24-.06-1.85-.12v-1.74h1.42c.52,0,1.06,0,1.6,0H113v1.85h-1.85Z" style="fill: #231f20"/>
    <path d="M361.72,117.53v-8.78h52.72l.28-.34a7.23,7.23,0,1,1,.28,9.41l-.28-.29Z" style="fill: #939598"/>
    <path d="M267.27,159.85l-1.8,2.1c-.29-.24-.56-.48-.86-.71.57-.72,1.16-1.44,1.78-2.13C266.69,159.36,267,159.6,267.27,159.85Z" style="fill: #231f20"/>
    <path d="M283,401.75a9.08,9.08,0,1,1-15.32-6.57v-9.81H246V361.6h1.85v21.92h21.73V396l-.32.27a7.23,7.23,0,1,0,9.42,0l-.32-.27V374.74H256.62V361.6h1.85v11.29H280.2v22.29A9,9,0,0,1,283,401.75Z" style="fill: #231f20"/>
    <rect x="170.7" y="361.57" width="8.78" height="0.04" style="fill: #231f20"/>
    <path d="M313.25,401.72A7.23,7.23,0,1,0,325,396.13l-.34-.28V361.6h1.85V395a9.09,9.09,0,1,1-12.48.34V361.6h1.85v34.53l-.31.27A7.23,7.23,0,0,0,313.25,401.72Z" style="fill: #231f20"/>
    <path d="M153.36,409a7.23,7.23,0,0,1-4.72-12.7L149,396V374.74H170.7V361.6h8.78v21.92H157.75V396l.32.27a7.23,7.23,0,0,1-4.71,12.7Z" style="fill: #939598"/>
    <path d="M290,208.27c-11.81-7.06-12.57-13.78-12.9-16.65,0-.24-.05-.46-.08-.64l2.74-.46c0,.23.06.49.1.8.28,2.46.93,8.21,11.57,14.57.61.36,1.24.71,1.88,1l-.15,1.28-2.75-.44s-.05.26-.11.68Z" style="fill: #231f20"/>
    <path d="M282.33,30.25a7.23,7.23,0,1,0-11.94,5.46l.31.28V48.48H249v22h-1.84V46.63h21.72V36.82a9.08,9.08,0,1,1,12.49,0V59.11H259.61V70.43h-1.85V57.26h21.73V36l.32-.28A7.2,7.2,0,0,0,282.33,30.25Z" style="fill: #231f20"/>
    <rect x="70.47" y="106.24" width="1.72" height="12.48" style="fill: #231f20"/>
    <path d="M174,217.87a6.7,6.7,0,1,0,6.7-6.7A6.71,6.71,0,0,0,174,217.87Zm6.7,9.47a9.48,9.48,0,1,1,9.48-9.47A9.49,9.49,0,0,1,180.73,227.34Z" style="fill: #231f20"/>
    <path d="M111.11,361.57v0H103.5l-1.17,0h8.78Z" style="fill: #231f20"/>
    <path d="M328.69,359.75a31.22,31.22,0,0,0,31.13-29.3V332h1.74a33.09,33.09,0,0,1-32.87,29.62h-2.14v-1.85Z" style="fill: #231f20"/>
    <path d="M93.43,96.16V340.49H337.84V96.16ZM338.76,341.42H92.5V95.23H338.76Z" style="fill: #231f20"/>
    <rect x="359.82" y="106.9" width="0.06" height="12.48" style="fill: #231f20"/>
    <path d="M216,141.43l.18,2.71-.76,0-.64,0,.18-2.71.52,0Z" style="fill: #231f20"/>
    <path d="M171.25,217.87a9.48,9.48,0,1,0,9.48-9.48A9.49,9.49,0,0,0,171.25,217.87Zm72.51,35a34.66,34.66,0,1,0-34.66-34.65A34.69,34.69,0,0,0,243.76,252.9Zm-29.6,33.72c0,4.13-.14,15.11-.32,17.51l-.14.25c-1.17,1-6.75,4.93-14.93.1-1-.59-2-1.18-3-1.75-9.12-5.28-17.74-10.26-31.74-28s-21.49-59.24-22.67-66.28a4.23,4.23,0,0,0,.41-.23c12.09-7.23,15.24-12.38,15.76-15.44l-2.74-.47c-.27,1.64-2.23,6.23-14.44,13.53-.73.43-1.49.84-2.27,1.22-9.56,4.63-22.9,5-29.45-1.91-5.52-5.83-4.11-16,5.19-37.63,3.26-7.55,10.63-20,16-23.75,1-.69,4-2.79,7.29-2.24,2.33.4,6.5,2.95,7.21,3.46l1.4,1c5.56,4,15.92,11.34,21.44,20l2.33-1.49a38.8,38.8,0,0,0-2.48-3.48c6.14-5.12,13.63-9.66,17.78-11.41a69.08,69.08,0,0,1,13.58-4,74.62,74.62,0,0,1,14-1.43c1.05,0,2.05-.07,3-.12,1.18.07,2.38.12,3.63.16a80.56,80.56,0,0,1,13.83,1.39,71.32,71.32,0,0,1,13.8,4c4,1.66,11.52,6.21,18,11.53-.85,1.09-1.66,2.21-2.38,3.35l2.34,1.49c5.52-8.7,15.88-16.08,21.44-20l1.39-1c.72-.52,4.87-3.06,7.2-3.46,3.29-.55,6.31,1.55,7.31,2.24,5.37,3.74,12.75,16.2,16,23.75,9.31,21.6,10.72,31.8,5.2,37.63-6.65,7-20.26,6.52-29.84,1.72-.64-.32-1.27-.67-1.88-1-10.64-6.36-11.29-12.11-11.57-14.57,0-.31-.07-.57-.1-.8L277,191c0,.18.06.4.08.64.33,2.87,1.09,9.59,12.9,16.65l.3.17c-1,5.9-8.63,48.7-22.94,66.8-14,17.69-22.62,22.68-31.74,27.95l-3,1.75c-7.79,4.61-13.36,1-15.07-.4-.2-2.49-.65-12.83-.39-17.53,5.51-.72,12-8.79,12.8-9.83l.81-1-1-.87a4.23,4.23,0,0,0-2.4-1.09c-.36,0-4.15-.18-6.92-.32l-4.34-.2c-1,0-11.31.48-12.13.55a4.86,4.86,0,0,0-2.27,1.1l-1.15,1,1.06,1.07C201.87,277.67,208.86,284.64,214.16,286.62Z" style="fill: #f1f2f2"/>
    <rect x="220.72" y="70.43" width="26.41" height="1.85" style="fill: #231f20"/>
    <polygon points="314.07 359.75 326.55 359.75 326.55 361.6 324.7 361.6 324.7 361.57 315.92 361.57 315.92 361.6 314.07 361.6 314.07 359.75" style="fill: #231f20"/>
    <path d="M214.16,285.82h.25c0,.25,0,.55-.06.86a.7.7,0,0,1-.19-.06Z" style="fill: #231f20"/>
    <rect x="168.85" y="359.72" width="12.48" height="0.04" style="fill: #231f20"/>
  </g>
</svg>
